[hls @ 000001f8103d4f80] Opening 'https://tv.vodu.me:1995/kass/kass1/tracks-v1a1/2025/08/04/19/57/17-10420.ts' for reading
[hls @ 000001f8103d4f80] Opening 'https://tv.vodu.me:1995/kass/kass1/tracks-v1a1/2025/08/04/19/57/27-10420.ts' for reading
Input #0, hls, from 'https://tv.vodu.me:1995/kass/kass1/tracks-v1a1/mono.m3u8':
  Duration: N/A, start: 81905.987767, bitrate: N/A
  Program 0 
    Metadata:
      variant_bitrate : 0
  Stream #0:0: Video: h264 (High) ([27][0][0][0] / 0x001B), yuv420p(tv, bt709), 1920x1080 [SAR 1:1 DAR 16:9], 24 fps, 50 tbr, 90k tbn, start 81905.987767
    Metadata:
      variant_bitrate : 0
  Stream #0:1: Audio: aac (LC) ([15][0][0][0] / 0x000F), 44100 Hz, stereo, fltp, start 81905.997511
    Metadata:
      variant_bitrate : 0
Stream mapping:
  Stream #0:0 -> #0:0 (copy)
  Stream #0:1 -> #0:1 (copy)
Output #0, hls, to 'live\channel_2\stream.m3u8':
  Metadata:
    encoder         : Lavf62.1.103
  Stream #0:0: Video: h264 (High) ([27][0][0][0] / 0x001B), yuv420p(tv, bt709), 1920x1080 [SAR 1:1 DAR 16:9], q=2-31, 24 fps, 50 tbr, 90k tbn
    Metadata:
      variant_bitrate : 0
  Stream #0:1: Audio: aac (LC) ([15][0][0][0] / 0x000F), 44100 Hz, stereo, fltp
    Metadata:
      variant_bitrate : 0
Press [q] to stop, [?] for help
[vist#0:0/h264 @ 000001f812a4fcc0] Resumed reading at pts 0.000 with rate 1.050 after a lag of 0.500s
frame=   13 fps=0.0 q=-1.0 size=N/A time=00:00:00.54 bitrate=N/A speed=1.07x elapsed=0:00:00.50    frame=   26 fps= 25 q=-1.0 size=N/A time=00:00:01.04 bitrate=N/A speed=1.02x elapsed=0:00:01.02    frame=   39 fps= 25 q=-1.0 size=N/A time=00:00:01.58 bitrate=N/A speed=1.03x elapsed=0:00:01.53    frame=   52 fps= 25 q=-1.0 size=N/A time=00:00:02.16 bitrate=N/A speed=1.05x elapsed=0:00:02.05    frame=   65 fps= 25 q=-1.0 size=N/A time=00:00:02.70 bitrate=N/A speed=1.05x elapsed=0:00:02.56    frame=   77 fps= 25 q=-1.0 size=N/A time=00:00:03.20 bitrate=N/A speed=1.04x elapsed=0:00:03.08    frame=   90 fps= 25 q=-1.0 size=N/A time=00:00:03.74 bitrate=N/A speed=1.04x elapsed=0:00:03.59    frame=  104 fps= 25 q=-1.0 size=N/A time=00:00:04.28 bitrate=N/A speed=1.04x elapsed=0:00:04.11    frame=  116 fps= 25 q=-1.0 size=N/A time=00:00:04.84 bitrate=N/A speed=1.05x elapsed=0:00:04.63    frame=  129 fps= 25 q=-1.0 size=N/A time=00:00:05.38 bitrate=N/A speed=1.05x elapsed=0:00:05.14    frame=  142 fps= 25 q=-1.0 size=N/A time=00:00:05.92 bitrate=N/A speed=1.05x elapsed=0:00:05.65    frame=  156 fps= 25 q=-1.0 size=N/A time=00:00:06.46 bitrate=N/A speed=1.05x elapsed=0:00:06.17    frame=  169 fps= 25 q=-1.0 size=N/A time=00:00:07.00 bitrate=N/A speed=1.05x elapsed=0:00:06.69    frame=  181 fps= 25 q=-1.0 size=N/A time=00:00:07.54 bitrate=N/A speed=1.05x elapsed=0:00:07.20    frame=  194 fps= 25 q=-1.0 size=N/A time=00:00:08.08 bitrate=N/A speed=1.05x elapsed=0:00:07.72    frame=  207 fps= 25 q=-1.0 size=N/A time=00:00:08.62 bitrate=N/A speed=1.05x elapsed=0:00:08.23    frame=  221 fps= 25 q=-1.0 size=N/A time=00:00:09.20 bitrate=N/A speed=1.05x elapsed=0:00:08.75    frame=  233 fps= 25 q=-1.0 size=N/A time=00:00:09.70 bitrate=N/A speed=1.05x elapsed=0:00:09.27    frame=  246 fps= 25 q=-1.0 size=N/A time=00:00:10.24 bitrate=N/A speed=1.05x elapsed=0:00:09.78    [https @ 000001f81049a200] Opening 'https://tv.vodu.me:1995/kass/kass1/tracks-v1a1/2025/08/04/19/57/37-10400.ts' for reading
[hls @ 000001f8129b5580] Opening 'live\channel_2\stream0.ts' for writing
[hls @ 000001f8129b5580] Opening 'live\channel_2\stream.m3u8.tmp' for writing
frame=  259 fps= 25 q=-1.0 size=N/A time=00:00:10.78 bitrate=N/A speed=1.05x elapsed=0:00:10.30    frame=  272 fps= 25 q=-1.0 size=N/A time=00:00:11.28 bitrate=N/A speed=1.04x elapsed=0:00:10.81    frame=  284 fps= 25 q=-1.0 size=N/A time=00:00:11.78 bitrate=N/A speed=1.04x elapsed=0:00:11.33    frame=  296 fps= 25 q=-1.0 size=N/A time=00:00:12.34 bitrate=N/A speed=1.04x elapsed=0:00:11.84    frame=  309 fps= 25 q=-1.0 size=N/A time=00:00:12.84 bitrate=N/A speed=1.04x elapsed=0:00:12.36    frame=  321 fps= 25 q=-1.0 size=N/A time=00:00:13.38 bitrate=N/A speed=1.04x elapsed=0:00:12.88    frame=  333 fps= 25 q=-1.0 size=N/A time=00:00:13.88 bitrate=N/A speed=1.04x elapsed=0:00:13.39    frame=  346 fps= 25 q=-1.0 size=N/A time=00:00:14.38 bitrate=N/A speed=1.03x elapsed=0:00:13.91    frame=  358 fps= 25 q=-1.0 size=N/A time=00:00:14.92 bitrate=N/A speed=1.03x elapsed=0:00:14.42    frame=  371 fps= 25 q=-1.0 size=N/A time=00:00:15.42 bitrate=N/A speed=1.03x elapsed=0:00:14.94    frame=  383 fps= 25 q=-1.0 size=N/A time=00:00:15.96 bitrate=N/A speed=1.03x elapsed=0:00:15.45    frame=  395 fps= 25 q=-1.0 size=N/A time=00:00:16.46 bitrate=N/A speed=1.03x elapsed=0:00:15.97    frame=  408 fps= 25 q=-1.0 size=N/A time=00:00:17.00 bitrate=N/A speed=1.03x elapsed=0:00:16.48    frame=  420 fps= 25 q=-1.0 size=N/A time=00:00:17.50 bitrate=N/A speed=1.03x elapsed=0:00:17.00    frame=  433 fps= 25 q=-1.0 size=N/A time=00:00:18.00 bitrate=N/A speed=1.03x elapsed=0:00:17.52    frame=  444 fps= 25 q=-1.0 size=N/A time=00:00:18.50 bitrate=N/A speed=1.03x elapsed=0:00:18.03    frame=  457 fps= 25 q=-1.0 size=N/A time=00:00:19.04 bitrate=N/A speed=1.03x elapsed=0:00:18.55    frame=  470 fps= 25 q=-1.0 size=N/A time=00:00:19.58 bitrate=N/A speed=1.03x elapsed=0:00:19.06    frame=  482 fps= 25 q=-1.0 size=N/A time=00:00:20.08 bitrate=N/A speed=1.03x elapsed=0:00:19.58    frame=  495 fps= 25 q=-1.0 size=N/A time=00:00:20.58 bitrate=N/A speed=1.02x elapsed=0:00:20.09    [https @ 000001f812277180] Opening 'https://tv.vodu.me:1995/kass/kass1/tracks-v1a1/2025/08/04/19/57/48-10420.ts' for reading
[hls @ 000001f8129b5580] Opening 'live\channel_2\stream1.ts' for writing
[hls @ 000001f8129b5580] Opening 'live\channel_2\stream.m3u8.tmp' for writing
frame=  507 fps= 25 q=-1.0 size=N/A time=00:00:21.08 bitrate=N/A speed=1.02x elapsed=0:00:20.61    frame=  519 fps= 25 q=-1.0 size=N/A time=00:00:21.62 bitrate=N/A speed=1.02x elapsed=0:00:21.13    frame=  532 fps= 25 q=-1.0 size=N/A time=00:00:22.16 bitrate=N/A speed=1.02x elapsed=0:00:21.64    frame=  544 fps= 25 q=-1.0 size=N/A time=00:00:22.66 bitrate=N/A speed=1.02x elapsed=0:00:22.16    frame=  557 fps= 25 q=-1.0 size=N/A time=00:00:23.16 bitrate=N/A speed=1.02x elapsed=0:00:22.67    frame=  568 fps= 24 q=-1.0 size=N/A time=00:00:23.66 bitrate=N/A speed=1.02x elapsed=0:00:23.19    frame=  581 fps= 25 q=-1.0 size=N/A time=00:00:24.20 bitrate=N/A speed=1.02x elapsed=0:00:23.70    frame=  593 fps= 24 q=-1.0 size=N/A time=00:00:24.70 bitrate=N/A speed=1.02x elapsed=0:00:24.22    frame=  606 fps= 24 q=-1.0 size=N/A time=00:00:25.24 bitrate=N/A speed=1.02x elapsed=0:00:24.73    frame=  618 fps= 24 q=-1.0 size=N/A time=00:00:25.74 bitrate=N/A speed=1.02x elapsed=0:00:25.25    frame=  630 fps= 24 q=-1.0 size=N/A time=00:00:26.24 bitrate=N/A speed=1.02x elapsed=0:00:25.77    frame=  643 fps= 24 q=-1.0 size=N/A time=00:00:26.74 bitrate=N/A speed=1.02x elapsed=0:00:26.28    frame=  655 fps= 24 q=-1.0 size=N/A time=00:00:27.28 bitrate=N/A speed=1.02x elapsed=0:00:26.80    frame=  668 fps= 24 q=-1.0 size=N/A time=00:00:27.78 bitrate=N/A speed=1.02x elapsed=0:00:27.31    frame=  680 fps= 24 q=-1.0 size=N/A time=00:00:28.28 bitrate=N/A speed=1.02x elapsed=0:00:27.83    frame=  692 fps= 24 q=-1.0 size=N/A time=00:00:28.84 bitrate=N/A speed=1.02x elapsed=0:00:28.34    frame=  704 fps= 24 q=-1.0 size=N/A time=00:00:29.34 bitrate=N/A speed=1.02x elapsed=0:00:28.86    frame=  717 fps= 24 q=-1.0 size=N/A time=00:00:29.88 bitrate=N/A speed=1.02x elapsed=0:00:29.38    frame=  730 fps= 24 q=-1.0 size=N/A time=00:00:30.38 bitrate=N/A speed=1.02x elapsed=0:00:29.89    frame=  741 fps= 24 q=-1.0 size=N/A time=00:00:30.88 bitrate=N/A speed=1.02x elapsed=0:00:30.41    [https @ 000001f81049a200] Opening 'https://tv.vodu.me:1995/kass/kass1/tracks-v1a1/2025/08/04/19/57/58-10420.ts' for reading
[hls @ 000001f8129b5580] Opening 'live\channel_2\stream2.ts' for writing
[hls @ 000001f8129b5580] Opening 'live\channel_2\stream.m3u8.tmp' for writing
frame=  754 fps= 24 q=-1.0 size=N/A time=00:00:31.42 bitrate=N/A speed=1.02x elapsed=0:00:30.92    frame=  767 fps= 24 q=-1.0 size=N/A time=00:00:31.96 bitrate=N/A speed=1.02x elapsed=0:00:31.44    frame=  779 fps= 24 q=-1.0 size=N/A time=00:00:32.46 bitrate=N/A speed=1.02x elapsed=0:00:31.95    frame=  792 fps= 24 q=-1.0 size=N/A time=00:00:32.96 bitrate=N/A speed=1.02x elapsed=0:00:32.47    frame=  804 fps= 24 q=-1.0 size=N/A time=00:00:33.46 bitrate=N/A speed=1.01x elapsed=0:00:32.98    frame=  816 fps= 24 q=-1.0 size=N/A time=00:00:34.00 bitrate=N/A speed=1.01x elapsed=0:00:33.50    frame=  828 fps= 24 q=-1.0 size=N/A time=00:00:34.50 bitrate=N/A speed=1.01x elapsed=0:00:34.02    frame=  841 fps= 24 q=-1.0 size=N/A time=00:00:35.04 bitrate=N/A speed=1.01x elapsed=0:00:34.53    frame=  854 fps= 24 q=-1.0 size=N/A time=00:00:35.54 bitrate=N/A speed=1.01x elapsed=0:00:35.05    frame=  865 fps= 24 q=-1.0 size=N/A time=00:00:36.04 bitrate=N/A speed=1.01x elapsed=0:00:35.56    frame=  878 fps= 24 q=-1.0 size=N/A time=00:00:36.58 bitrate=N/A speed=1.01x elapsed=0:00:36.08    frame=  890 fps= 24 q=-1.0 size=N/A time=00:00:37.08 bitrate=N/A speed=1.01x elapsed=0:00:36.60    frame=  903 fps= 24 q=-1.0 size=N/A time=00:00:37.62 bitrate=N/A speed=1.01x elapsed=0:00:37.11    frame=  915 fps= 24 q=-1.0 size=N/A time=00:00:38.12 bitrate=N/A speed=1.01x elapsed=0:00:37.63    frame=  927 fps= 24 q=-1.0 size=N/A time=00:00:38.62 bitrate=N/A speed=1.01x elapsed=0:00:38.14    frame=  939 fps= 24 q=-1.0 size=N/A time=00:00:39.12 bitrate=N/A speed=1.01x elapsed=0:00:38.66    frame=  952 fps= 24 q=-1.0 size=N/A time=00:00:39.66 bitrate=N/A speed=1.01x elapsed=0:00:39.17    frame=  965 fps= 24 q=-1.0 size=N/A time=00:00:40.20 bitrate=N/A speed=1.01x elapsed=0:00:39.69    frame=  977 fps= 24 q=-1.0 size=N/A time=00:00:40.70 bitrate=N/A speed=1.01x elapsed=0:00:40.20    frame=  990 fps= 24 q=-1.0 size=N/A time=00:00:41.20 bitrate=N/A speed=1.01x elapsed=0:00:40.72    [https @ 000001f813213440] Opening 'https://tv.vodu.me:1995/kass/kass1/tracks-v1a1/mono.m3u8' for reading
[https @ 000001f812277180] Opening 'https://tv.vodu.me:1995/kass/kass1/tracks-v1a1/2025/08/04/19/58/09-10420.ts' for reading
[hls @ 000001f8129b5580] Opening 'live\channel_2\stream3.ts' for writing
[hls @ 000001f8129b5580] Opening 'live\channel_2\stream.m3u8.tmp' for writing
frame= 1001 fps= 24 q=-1.0 size=N/A time=00:00:41.70 bitrate=N/A speed=1.01x elapsed=0:00:41.24    frame= 1014 fps= 24 q=-1.0 size=N/A time=00:00:42.24 bitrate=N/A speed=1.01x elapsed=0:00:41.75    frame= 1027 fps= 24 q=-1.0 size=N/A time=00:00:42.74 bitrate=N/A speed=1.01x elapsed=0:00:42.27    frame= 1039 fps= 24 q=-1.0 size=N/A time=00:00:43.24 bitrate=N/A speed=1.01x elapsed=0:00:42.78    frame= 1051 fps= 24 q=-1.0 size=N/A time=00:00:43.78 bitrate=N/A speed=1.01x elapsed=0:00:43.30    frame= 1063 fps= 24 q=-1.0 size=N/A time=00:00:44.28 bitrate=N/A speed=1.01x elapsed=0:00:43.81    frame= 1076 fps= 24 q=-1.0 size=N/A time=00:00:44.84 bitrate=N/A speed=1.01x elapsed=0:00:44.33    frame= 1089 fps= 24 q=-1.0 size=N/A time=00:00:45.34 bitrate=N/A speed=1.01x elapsed=0:00:44.84    frame= 1100 fps= 24 q=-1.0 size=N/A time=00:00:45.84 bitrate=N/A speed=1.01x elapsed=0:00:45.36    frame= 1113 fps= 24 q=-1.0 size=N/A time=00:00:46.38 bitrate=N/A speed=1.01x elapsed=0:00:45.88    frame= 1125 fps= 24 q=-1.0 size=N/A time=00:00:46.88 bitrate=N/A speed=1.01x elapsed=0:00:46.39    frame= 1138 fps= 24 q=-1.0 size=N/A time=00:00:47.42 bitrate=N/A speed=1.01x elapsed=0:00:46.91    frame= 1150 fps= 24 q=-1.0 size=N/A time=00:00:47.92 bitrate=N/A speed=1.01x elapsed=0:00:47.42    frame= 1163 fps= 24 q=-1.0 size=N/A time=00:00:48.42 bitrate=N/A speed=1.01x elapsed=0:00:47.94    frame= 1175 fps= 24 q=-1.0 size=N/A time=00:00:48.92 bitrate=N/A speed=1.01x elapsed=0:00:48.45    frame= 1187 fps= 24 q=-1.0 size=N/A time=00:00:49.46 bitrate=N/A speed=1.01x elapsed=0:00:48.97    frame= 1200 fps= 24 q=-1.0 size=N/A time=00:00:50.00 bitrate=N/A speed=1.01x elapsed=0:00:49.49    frame= 1212 fps= 24 q=-1.0 size=N/A time=00:00:50.50 bitrate=N/A speed=1.01x elapsed=0:00:50.00    frame= 1225 fps= 24 q=-1.0 size=N/A time=00:00:51.00 bitrate=N/A speed=1.01x elapsed=0:00:50.52    frame= 1237 fps= 24 q=-1.0 size=N/A time=00:00:51.50 bitrate=N/A speed=1.01x elapsed=0:00:51.03    frame= 1249 fps= 24 q=-1.0 size=N/A time=00:00:52.04 bitrate=N/A speed=1.01x elapsed=0:00:51.55    [https @ 000001f81049a200] Opening 'https://tv.vodu.me:1995/kass/kass1/tracks-v1a1/2025/08/04/19/58/19-10420.ts' for reading
[https @ 000001f813213440] Opening 'https://tv.vodu.me:1995/kass/kass1/tracks-v1a1/mono.m3u8' for reading
[hls @ 000001f8129b5580] Opening 'live\channel_2\stream4.ts' for writing
[hls @ 000001f8129b5580] Opening 'live\channel_2\stream.m3u8.tmp' for writing
frame= 1261 fps= 24 q=-1.0 size=N/A time=00:00:52.54 bitrate=N/A speed=1.01x elapsed=0:00:52.06    frame= 1274 fps= 24 q=-1.0 size=N/A time=00:00:53.08 bitrate=N/A speed=1.01x elapsed=0:00:52.58    frame= 1287 fps= 24 q=-1.0 size=N/A time=00:00:53.58 bitrate=N/A speed=1.01x elapsed=0:00:53.10    frame= 1299 fps= 24 q=-1.0 size=N/A time=00:00:54.08 bitrate=N/A speed=1.01x elapsed=0:00:53.61    frame= 1311 fps= 24 q=-1.0 size=N/A time=00:00:54.62 bitrate=N/A speed=1.01x elapsed=0:00:54.13    frame= 1323 fps= 24 q=-1.0 size=N/A time=00:00:55.12 bitrate=N/A speed=1.01x elapsed=0:00:54.64    frame= 1336 fps= 24 q=-1.0 size=N/A time=00:00:55.66 bitrate=N/A speed=1.01x elapsed=0:00:55.16    frame= 1349 fps= 24 q=-1.0 size=N/A time=00:00:56.16 bitrate=N/A speed=1.01x elapsed=0:00:55.67    frame= 1361 fps= 24 q=-1.0 size=N/A time=00:00:56.66 bitrate=N/A speed=1.01x elapsed=0:00:56.19    frame= 1373 fps= 24 q=-1.0 size=N/A time=00:00:57.20 bitrate=N/A speed=1.01x elapsed=0:00:56.70    frame= 1385 fps= 24 q=-1.0 size=N/A time=00:00:57.70 bitrate=N/A speed=1.01x elapsed=0:00:57.22    frame= 1398 fps= 24 q=-1.0 size=N/A time=00:00:58.24 bitrate=N/A speed=1.01x elapsed=0:00:57.73    frame= 1410 fps= 24 q=-1.0 size=N/A time=00:00:58.74 bitrate=N/A speed=1.01x elapsed=0:00:58.25    frame= 1422 fps= 24 q=-1.0 size=N/A time=00:00:59.24 bitrate=N/A speed=1.01x elapsed=0:00:58.77    frame= 1435 fps= 24 q=-1.0 size=N/A time=00:00:59.78 bitrate=N/A speed=1.01x elapsed=0:00:59.28    frame= 1447 fps= 24 q=-1.0 size=N/A time=00:01:00.28 bitrate=N/A speed=1.01x elapsed=0:00:59.80    frame= 1459 fps= 24 q=-1.0 size=N/A time=00:01:00.78 bitrate=N/A speed=1.01x elapsed=0:01:00.31    frame= 1472 fps= 24 q=-1.0 size=N/A time=00:01:01.28 bitrate=N/A speed=1.01x elapsed=0:01:00.83    frame= 1484 fps= 24 q=-1.0 size=N/A time=00:01:01.84 bitrate=N/A speed=1.01x elapsed=0:01:01.34    frame= 1496 fps= 24 q=-1.0 size=N/A time=00:01:02.34 bitrate=N/A speed=1.01x elapsed=0:01:01.86    [https @ 000001f812277180] Opening 'https://tv.vodu.me:1995/kass/kass1/tracks-v1a1/2025/08/04/19/58/30-10420.ts' for reading
[hls @ 000001f8129b5580] Opening 'live\channel_2\stream5.ts' for writing
[hls @ 000001f8129b5580] Opening 'live\channel_2\stream.m3u8.tmp' for writing
frame= 1509 fps= 24 q=-1.0 size=N/A time=00:01:02.88 bitrate=N/A speed=1.01x elapsed=0:01:02.38    frame= 1521 fps= 24 q=-1.0 size=N/A time=00:01:03.38 bitrate=N/A speed=1.01x elapsed=0:01:02.89    frame= 1534 fps= 24 q=-1.0 size=N/A time=00:01:03.88 bitrate=N/A speed=1.01x elapsed=0:01:03.41    frame= 1546 fps= 24 q=-1.0 size=N/A time=00:01:04.42 bitrate=N/A speed=1.01x elapsed=0:01:03.92    frame= 1558 fps= 24 q=-1.0 size=N/A time=00:01:04.92 bitrate=N/A speed=1.01x elapsed=0:01:04.44    frame= 1571 fps= 24 q=-1.0 size=N/A time=00:01:05.46 bitrate=N/A speed=1.01x elapsed=0:01:04.95    frame= 1583 fps= 24 q=-1.0 size=N/A time=00:01:05.96 bitrate=N/A speed=1.01x elapsed=0:01:05.47    frame= 1596 fps= 24 q=-1.0 size=N/A time=00:01:06.46 bitrate=N/A speed=1.01x elapsed=0:01:05.98    frame= 1608 fps= 24 q=-1.0 size=N/A time=00:01:07.00 bitrate=N/A speed=1.01x elapsed=0:01:06.50    frame= 1620 fps= 24 q=-1.0 size=N/A time=00:01:07.50 bitrate=N/A speed=1.01x elapsed=0:01:07.02    frame= 1633 fps= 24 q=-1.0 size=N/A time=00:01:08.04 bitrate=N/A speed=1.01x elapsed=0:01:07.53    frame= 1645 fps= 24 q=-1.0 size=N/A time=00:01:08.54 bitrate=N/A speed=1.01x elapsed=0:01:08.05    frame= 1658 fps= 24 q=-1.0 size=N/A time=00:01:09.04 bitrate=N/A speed=1.01x elapsed=0:01:08.56    frame= 1670 fps= 24 q=-1.0 size=N/A time=00:01:09.58 bitrate=N/A speed=1.01x elapsed=0:01:09.08    frame= 1682 fps= 24 q=-1.0 size=N/A time=00:01:10.08 bitrate=N/A speed=1.01x elapsed=0:01:09.59    frame= 1695 fps= 24 q=-1.0 size=N/A time=00:01:10.62 bitrate=N/A speed=1.01x elapsed=0:01:10.11    frame= 1707 fps= 24 q=-1.0 size=N/A time=00:01:11.12 bitrate=N/A speed=1.01x elapsed=0:01:10.63    frame= 1719 fps= 24 q=-1.0 size=N/A time=00:01:11.62 bitrate=N/A speed=1.01x elapsed=0:01:11.14    frame= 1732 fps= 24 q=-1.0 size=N/A time=00:01:12.16 bitrate=N/A speed=1.01x elapsed=0:01:11.66    frame= 1744 fps= 24 q=-1.0 size=N/A time=00:01:12.66 bitrate=N/A speed=1.01x elapsed=0:01:12.17    [https @ 000001f813213440] Opening 'https://tv.vodu.me:1995/kass/kass1/tracks-v1a1/mono.m3u8' for reading
[https @ 000001f81049a200] Opening 'https://tv.vodu.me:1995/kass/kass1/tracks-v1a1/2025/08/04/19/58/40-10400.ts' for reading
[hls @ 000001f8129b5580] Opening 'live\channel_2\stream6.ts' for writing
[hls @ 000001f8129b5580] Opening 'live\channel_2\stream.m3u8.tmp' for writing
frame= 1757 fps= 24 q=-1.0 size=N/A time=00:01:13.16 bitrate=N/A speed=1.01x elapsed=0:01:12.69    frame= 1769 fps= 24 q=-1.0 size=N/A time=00:01:13.70 bitrate=N/A speed=1.01x elapsed=0:01:13.20    frame= 1782 fps= 24 q=-1.0 size=N/A time=00:01:14.20 bitrate=N/A speed=1.01x elapsed=0:01:13.72    frame= 1794 fps= 24 q=-1.0 size=N/A time=00:01:14.74 bitrate=N/A speed=1.01x elapsed=0:01:14.23    frame= 1806 fps= 24 q=-1.0 size=N/A time=00:01:15.24 bitrate=N/A speed=1.01x elapsed=0:01:14.75    frame= 1818 fps= 24 q=-1.0 size=N/A time=00:01:15.74 bitrate=N/A speed=1.01x elapsed=0:01:15.27    frame= 1830 fps= 24 q=-1.0 size=N/A time=00:01:16.24 bitrate=N/A speed=1.01x elapsed=0:01:15.78    frame= 1843 fps= 24 q=-1.0 size=N/A time=00:01:16.74 bitrate=N/A speed=1.01x elapsed=0:01:16.30    frame= 1855 fps= 24 q=-1.0 size=N/A time=00:01:17.28 bitrate=N/A speed=1.01x elapsed=0:01:16.81    frame= 1868 fps= 24 q=-1.0 size=N/A time=00:01:17.84 bitrate=N/A speed=1.01x elapsed=0:01:17.33    frame= 1880 fps= 24 q=-1.0 size=N/A time=00:01:18.34 bitrate=N/A speed=1.01x elapsed=0:01:17.84    frame= 1893 fps= 24 q=-1.0 size=N/A time=00:01:18.84 bitrate=N/A speed=1.01x elapsed=0:01:18.36    frame= 1905 fps= 24 q=-1.0 size=N/A time=00:01:19.34 bitrate=N/A speed=1.01x elapsed=0:01:18.88    frame= 1917 fps= 24 q=-1.0 size=N/A time=00:01:19.88 bitrate=N/A speed=1.01x elapsed=0:01:19.39    frame= 1930 fps= 24 q=-1.0 size=N/A time=00:01:20.42 bitrate=N/A speed=1.01x elapsed=0:01:19.91    frame= 1942 fps= 24 q=-1.0 size=N/A time=00:01:20.92 bitrate=N/A speed=1.01x elapsed=0:01:20.42    frame= 1955 fps= 24 q=-1.0 size=N/A time=00:01:21.42 bitrate=N/A speed=1.01x elapsed=0:01:20.94    frame= 1967 fps= 24 q=-1.0 size=N/A time=00:01:21.96 bitrate=N/A speed=1.01x elapsed=0:01:21.46    frame= 1979 fps= 24 q=-1.0 size=N/A time=00:01:22.46 bitrate=N/A speed=1.01x elapsed=0:01:21.96    frame= 1991 fps= 24 q=-1.0 size=N/A time=00:01:22.96 bitrate=N/A speed=1.01x elapsed=0:01:22.48    [https @ 000001f812277180] Opening 'https://tv.vodu.me:1995/kass/kass1/tracks-v1a1/2025/08/04/19/58/50-10420.ts' for reading
[hls @ 000001f8129b5580] Opening 'live\channel_2\stream7.ts' for writing
[hls @ 000001f8129b5580] Opening 'live\channel_2\stream.m3u8.tmp' for writing
frame= 2004 fps= 24 q=-1.0 size=N/A time=00:01:23.50 bitrate=N/A speed=1.01x elapsed=0:01:23.00    frame= 2016 fps= 24 q=-1.0 size=N/A time=00:01:24.00 bitrate=N/A speed=1.01x elapsed=0:01:23.51    frame= 2028 fps= 24 q=-1.0 size=N/A time=00:01:24.50 bitrate=N/A speed=1.01x elapsed=0:01:24.03    frame= 2041 fps= 24 q=-1.0 size=N/A time=00:01:25.04 bitrate=N/A speed=1.01x elapsed=0:01:24.54    frame= 2053 fps= 24 q=-1.0 size=N/A time=00:01:25.54 bitrate=N/A speed=1.01x elapsed=0:01:25.06    frame= 2066 fps= 24 q=-1.0 size=N/A time=00:01:26.08 bitrate=N/A speed=1.01x elapsed=0:01:25.58    frame= 2078 fps= 24 q=-1.0 size=N/A time=00:01:26.58 bitrate=N/A speed=1.01x elapsed=0:01:26.09    frame= 2091 fps= 24 q=-1.0 size=N/A time=00:01:27.12 bitrate=N/A speed=1.01x elapsed=0:01:26.61    frame= 2103 fps= 24 q=-1.0 size=N/A time=00:01:27.62 bitrate=N/A speed=1.01x elapsed=0:01:27.12    frame= 2115 fps= 24 q=-1.0 size=N/A time=00:01:28.12 bitrate=N/A speed=1.01x elapsed=0:01:27.64    frame= 2128 fps= 24 q=-1.0 size=N/A time=00:01:28.66 bitrate=N/A speed=1.01x elapsed=0:01:28.15    frame= 2140 fps= 24 q=-1.0 size=N/A time=00:01:29.16 bitrate=N/A speed=1.01x elapsed=0:01:28.67    frame= 2153 fps= 24 q=-1.0 size=N/A time=00:01:29.70 bitrate=N/A speed=1.01x elapsed=0:01:29.18    frame= 2165 fps= 24 q=-1.0 size=N/A time=00:01:30.20 bitrate=N/A speed=1.01x elapsed=0:01:29.70    frame= 2177 fps= 24 q=-1.0 size=N/A time=00:01:30.70 bitrate=N/A speed=1.01x elapsed=0:01:30.21    frame= 2190 fps= 24 q=-1.0 size=N/A time=00:01:31.24 bitrate=N/A speed=1.01x elapsed=0:01:30.73    frame= 2202 fps= 24 q=-1.0 size=N/A time=00:01:31.74 bitrate=N/A speed=1.01x elapsed=0:01:31.25    frame= 2214 fps= 24 q=-1.0 size=N/A time=00:01:32.24 bitrate=N/A speed=1.01x elapsed=0:01:31.76    frame= 2226 fps= 24 q=-1.0 size=N/A time=00:01:32.74 bitrate=N/A speed=   1x elapsed=0:01:32.28    frame= 2239 fps= 24 q=-1.0 size=N/A time=00:01:33.28 bitrate=N/A speed=1.01x elapsed=0:01:32.79    [https @ 000001f813213440] Opening 'https://tv.vodu.me:1995/kass/kass1/tracks-v1a1/mono.m3u8' for reading
[hls @ 000001f8129b5580] Opening 'live\channel_2\stream8.ts' for writing
[hls @ 000001f8129b5580] Opening 'live\channel_2\stream.m3u8.tmp' for writing
frame= 2251 fps= 24 q=-1.0 size=N/A time=00:01:33.78 bitrate=N/A speed=1.01x elapsed=0:01:33.31    frame= 2263 fps= 24 q=-1.0 size=N/A time=00:01:34.28 bitrate=N/A speed=   1x elapsed=0:01:33.82    frame= 2276 fps= 24 q=-1.0 size=N/A time=00:01:34.84 bitrate=N/A speed=1.01x elapsed=0:01:34.34    frame= 2288 fps= 24 q=-1.0 size=N/A time=00:01:35.34 bitrate=N/A speed=1.01x elapsed=0:01:34.85    frame= 2301 fps= 24 q=-1.0 size=N/A time=00:01:35.88 bitrate=N/A speed=1.01x elapsed=0:01:35.37    frame= 2313 fps= 24 q=-1.0 size=N/A time=00:01:36.38 bitrate=N/A speed=1.01x elapsed=0:01:35.89    frame= 2326 fps= 24 q=-1.0 size=N/A time=00:01:36.92 bitrate=N/A speed=1.01x elapsed=0:01:36.40    frame= 2338 fps= 24 q=-1.0 size=N/A time=00:01:37.42 bitrate=N/A speed=1.01x elapsed=0:01:36.92    frame= 2350 fps= 24 q=-1.0 size=N/A time=00:01:37.92 bitrate=N/A speed=   1x elapsed=0:01:37.43    frame= 2363 fps= 24 q=-1.0 size=N/A time=00:01:38.46 bitrate=N/A speed=1.01x elapsed=0:01:37.95    frame= 2375 fps= 24 q=-1.0 size=N/A time=00:01:38.96 bitrate=N/A speed=   1x elapsed=0:01:38.47    frame= 2388 fps= 24 q=-1.0 size=N/A time=00:01:39.50 bitrate=N/A speed=1.01x elapsed=0:01:38.98    frame= 2400 fps= 24 q=-1.0 size=N/A time=00:01:40.00 bitrate=N/A speed=1.01x elapsed=0:01:39.50    frame= 2413 fps= 24 q=-1.0 size=N/A time=00:01:40.50 bitrate=N/A speed=   1x elapsed=0:01:40.02    frame= 2425 fps= 24 q=-1.0 size=N/A time=00:01:41.00 bitrate=N/A speed=   1x elapsed=0:01:40.53    frame= 2437 fps= 24 q=-1.0 size=N/A time=00:01:41.54 bitrate=N/A speed=   1x elapsed=0:01:41.05    frame= 2450 fps= 24 q=-1.0 size=N/A time=00:01:42.08 bitrate=N/A speed=1.01x elapsed=0:01:41.56    frame= 2462 fps= 24 q=-1.0 size=N/A time=00:01:42.58 bitrate=N/A speed=   1x elapsed=0:01:42.08    frame= 2475 fps= 24 q=-1.0 size=N/A time=00:01:43.08 bitrate=N/A speed=   1x elapsed=0:01:42.60    frame= 2486 fps= 24 q=-1.0 size=N/A time=00:01:43.58 bitrate=N/A speed=   1x elapsed=0:01:43.11    frame= 2499 fps= 24 q=-1.0 size=N/A time=00:01:44.12 bitrate=N/A speed=   1x elapsed=0:01:43.63    [https @ 000001f813213440] Opening 'https://tv.vodu.me:1995/kass/kass1/tracks-v1a1/mono.m3u8' for reading
[https @ 000001f812277180] Opening 'https://tv.vodu.me:1995/kass/kass1/tracks-v1a1/2025/08/04/19/59/01-10420.ts' for reading
[hls @ 000001f8129b5580] Opening 'live\channel_2\stream9.ts' for writing
[hls @ 000001f8129b5580] Opening 'live\channel_2\stream.m3u8.tmp' for writing
frame= 2512 fps= 24 q=-1.0 size=N/A time=00:01:44.66 bitrate=N/A speed=   1x elapsed=0:01:44.14    frame= 2524 fps= 24 q=-1.0 size=N/A time=00:01:45.16 bitrate=N/A speed=   1x elapsed=0:01:44.66    frame= 2536 fps= 24 q=-1.0 size=N/A time=00:01:45.66 bitrate=N/A speed=   1x elapsed=0:01:45.17    frame= 2548 fps= 24 q=-1.0 size=N/A time=00:01:46.16 bitrate=N/A speed=   1x elapsed=0:01:45.69    frame= 2561 fps= 24 q=-1.0 size=N/A time=00:01:46.70 bitrate=N/A speed=   1x elapsed=0:01:46.20    frame= 2573 fps= 24 q=-1.0 size=N/A time=00:01:47.20 bitrate=N/A speed=   1x elapsed=0:01:46.72    frame= 2586 fps= 24 q=-1.0 size=N/A time=00:01:47.74 bitrate=N/A speed=   1x elapsed=0:01:47.24    frame= 2598 fps= 24 q=-1.0 size=N/A time=00:01:48.24 bitrate=N/A speed=   1x elapsed=0:01:47.75    frame= 2610 fps= 24 q=-1.0 size=N/A time=00:01:48.74 bitrate=N/A speed=   1x elapsed=0:01:48.27    frame= 2622 fps= 24 q=-1.0 size=N/A time=00:01:49.24 bitrate=N/A speed=   1x elapsed=0:01:48.78    frame= 2635 fps= 24 q=-1.0 size=N/A time=00:01:49.78 bitrate=N/A speed=   1x elapsed=0:01:49.30    frame= 2647 fps= 24 q=-1.0 size=N/A time=00:01:50.28 bitrate=N/A speed=   1x elapsed=0:01:49.81    frame= 2660 fps= 24 q=-1.0 size=N/A time=00:01:50.78 bitrate=N/A speed=   1x elapsed=0:01:50.33    frame= 2672 fps= 24 q=-1.0 size=N/A time=00:01:51.34 bitrate=N/A speed=   1x elapsed=0:01:50.85    frame= 2685 fps= 24 q=-1.0 size=N/A time=00:01:51.88 bitrate=N/A speed=   1x elapsed=0:01:51.36    frame= 2697 fps= 24 q=-1.0 size=N/A time=00:01:52.38 bitrate=N/A speed=   1x elapsed=0:01:51.88    frame= 2710 fps= 24 q=-1.0 size=N/A time=00:01:52.88 bitrate=N/A speed=   1x elapsed=0:01:52.39    frame= 2722 fps= 24 q=-1.0 size=N/A time=00:01:53.38 bitrate=N/A speed=   1x elapsed=0:01:52.91    frame= 2734 fps= 24 q=-1.0 size=N/A time=00:01:53.92 bitrate=N/A speed=   1x elapsed=0:01:53.42    frame= 2747 fps= 24 q=-1.0 size=N/A time=00:01:54.42 bitrate=N/A speed=   1x elapsed=0:01:53.94    [https @ 000001f813213440] Opening 'https://tv.vodu.me:1995/kass/kass1/tracks-v1a1/mono.m3u8' for reading
[https @ 000001f812277180] Opening 'https://tv.vodu.me:1995/kass/kass1/tracks-v1a1/2025/08/04/19/59/11-15080.ts' for reading
[hls @ 000001f8129b5580] Opening 'live\channel_2\stream10.ts' for writing
[hls @ 000001f8129b5580] Opening 'live\channel_2\stream.m3u8.tmp' for writing
frame= 2759 fps= 24 q=-1.0 size=N/A time=00:01:54.96 bitrate=N/A speed=   1x elapsed=0:01:54.46    frame= 2771 fps= 24 q=-1.0 size=N/A time=00:01:55.46 bitrate=N/A speed=   1x elapsed=0:01:54.97    frame= 2784 fps= 24 q=-1.0 size=N/A time=00:01:55.96 bitrate=N/A speed=   1x elapsed=0:01:55.49    frame= 2796 fps= 24 q=-1.0 size=N/A time=00:01:56.50 bitrate=N/A speed=   1x elapsed=0:01:56.00    frame= 2808 fps= 24 q=-1.0 size=N/A time=00:01:57.00 bitrate=N/A speed=   1x elapsed=0:01:56.52    frame= 2821 fps= 24 q=-1.0 size=N/A time=00:01:57.54 bitrate=N/A speed=   1x elapsed=0:01:57.04    frame= 2834 fps= 24 q=-1.0 size=N/A time=00:01:58.04 bitrate=N/A speed=   1x elapsed=0:01:57.55    frame= 2846 fps= 24 q=-1.0 size=N/A time=00:01:58.54 bitrate=N/A speed=   1x elapsed=0:01:58.06    frame= 2858 fps= 24 q=-1.0 size=N/A time=00:01:59.08 bitrate=N/A speed=   1x elapsed=0:01:58.58    [vost#0:0/copy @ 000001f812338780] Non-monotonic DTS; previous: 10731600, current: 10731600; changing to 10731601. This may result in incorrect timestamps in the output file.
[hls @ 000001f8129b5580] Opening 'live\channel_2\stream11.ts' for writing
[hls @ 000001f8129b5580] Opening 'live\channel_2\stream.m3u8.tmp' for writing
frame= 2871 fps= 24 q=-1.0 size=N/A time=00:01:59.58 bitrate=N/A speed=   1x elapsed=0:01:59.09    frame= 2884 fps= 24 q=-1.0 size=N/A time=00:02:00.12 bitrate=N/A speed=   1x elapsed=0:01:59.61    frame= 2896 fps= 24 q=-1.0 size=N/A time=00:02:00.62 bitrate=N/A speed=   1x elapsed=0:02:00.13    frame= 2908 fps= 24 q=-1.0 size=N/A time=00:02:01.12 bitrate=N/A speed=   1x elapsed=0:02:00.64    frame= 2921 fps= 24 q=-1.0 size=N/A time=00:02:01.62 bitrate=N/A speed=   1x elapsed=0:02:01.16    frame= 2933 fps= 24 q=-1.0 size=N/A time=00:02:02.16 bitrate=N/A speed=   1x elapsed=0:02:01.67    frame= 2946 fps= 24 q=-1.0 size=N/A time=00:02:02.70 bitrate=N/A speed=   1x elapsed=0:02:02.19    frame= 2958 fps= 24 q=-1.0 size=N/A time=00:02:03.20 bitrate=N/A speed=   1x elapsed=0:02:02.70    frame= 2970 fps= 24 q=-1.0 size=N/A time=00:02:03.70 bitrate=N/A speed=   1x elapsed=0:02:03.22    frame= 2982 fps= 24 q=-1.0 size=N/A time=00:02:04.20 bitrate=N/A speed=   1x elapsed=0:02:03.73    frame= 2995 fps= 24 q=-1.0 size=N/A time=00:02:04.74 bitrate=N/A speed=   1x elapsed=0:02:04.25    frame= 3007 fps= 24 q=-1.0 size=N/A time=00:02:05.24 bitrate=N/A speed=   1x elapsed=0:02:04.77    frame= 3020 fps= 24 q=-1.0 size=N/A time=00:02:05.78 bitrate=N/A speed=   1x elapsed=0:02:05.28    frame= 3032 fps= 24 q=-1.0 size=N/A time=00:02:06.28 bitrate=N/A speed=   1x elapsed=0:02:05.79    frame= 3045 fps= 24 q=-1.0 size=N/A time=00:02:06.82 bitrate=N/A speed=   1x elapsed=0:02:06.32    frame= 3057 fps= 24 q=-1.0 size=N/A time=00:02:07.32 bitrate=N/A speed=   1x elapsed=0:02:06.83    frame= 3069 fps= 24 q=-1.0 size=N/A time=00:02:07.82 bitrate=N/A speed=   1x elapsed=0:02:07.34    frame= 3081 fps= 24 q=-1.0 size=N/A time=00:02:08.32 bitrate=N/A speed=   1x elapsed=0:02:07.86    frame= 3094 fps= 24 q=-1.0 size=N/A time=00:02:08.82 bitrate=N/A speed=   1x elapsed=0:02:08.37    frame= 3106 fps= 24 q=-1.0 size=N/A time=00:02:09.36 bitrate=N/A speed=   1x elapsed=0:02:08.89    frame= 3112 fps= 24 q=-1.0 size=N/A time=00:02:09.62 bitrate=N/A speed=   1x elapsed=0:02:09.40    [https @ 000001f813213440] Opening 'https://tv.vodu.me:1995/kass/kass1/tracks-v1a1/mono.m3u8' for reading
[https @ 000001f812277180] Opening 'https://tv.vodu.me:1995/kass/kass1/tracks-v1a1/2025/08/04/19/59/26-10420.ts' for reading
[https @ 000001f81049a200] Opening 'https://tv.vodu.me:1995/kass/kass1/tracks-v1a1/2025/08/04/19/59/37-10420.ts' for reading
[vist#0:0/h264 @ 000001f812a4fcc0] Resumed reading at pts 129.620 with rate 1.050 after a lag of 0.375s
[hls @ 000001f8129b5580] Opening 'live\channel_2\stream12.ts' for writing
[hls @ 000001f8129b5580] Opening 'live\channel_2\stream.m3u8.tmp' for writing
frame= 3123 fps= 24 q=-1.0 size=N/A time=00:02:10.08 bitrate=N/A speed=   1x elapsed=0:02:09.92    frame= 3136 fps= 24 q=-1.0 size=N/A time=00:02:10.62 bitrate=N/A speed=   1x elapsed=0:02:10.44    frame= 3149 fps= 24 q=-1.0 size=N/A time=00:02:11.16 bitrate=N/A speed=   1x elapsed=0:02:10.95    frame= 3162 fps= 24 q=-1.0 size=N/A time=00:02:11.70 bitrate=N/A speed=   1x elapsed=0:02:11.47    frame= 3175 fps= 24 q=-1.0 size=N/A time=00:02:12.24 bitrate=N/A speed=   1x elapsed=0:02:11.98    frame= 3189 fps= 24 q=-1.0 size=N/A time=00:02:12.78 bitrate=N/A speed=   1x elapsed=0:02:12.50    frame= 3201 fps= 24 q=-1.0 size=N/A time=00:02:13.32 bitrate=N/A speed=   1x elapsed=0:02:13.01    frame= 3214 fps= 24 q=-1.0 size=N/A time=00:02:13.82 bitrate=N/A speed=   1x elapsed=0:02:13.53    frame= 3227 fps= 24 q=-1.0 size=N/A time=00:02:14.42 bitrate=N/A speed=   1x elapsed=0:02:14.05    frame= 3240 fps= 24 q=-1.0 size=N/A time=00:02:14.96 bitrate=N/A speed=   1x elapsed=0:02:14.56    frame= 3252 fps= 24 q=-1.0 size=N/A time=00:02:15.46 bitrate=N/A speed=   1x elapsed=0:02:15.08    